<svg xmlns="http://www.w3.org/2000/svg" width="3027" height="2151" viewBox="0 0 3027 2151"><defs><style type="text/css"/></defs><g transform="translate(1443.7642156842653 1225.730070496238) scale(1)"><g class="relationship"><g transform="translate(203.67868859651614 341.6458879032351) rotate(-90)" stroke-width="5" stroke="#000000"><path d="M 58.695178092152055 -5.989663490593891 L 95.96898050729243 -9.793341079425122 A 40 40 0 0 1 100.02976931447472 -10 L 238.59575851182277 -10 L 377.1617477091708 -10 A 40 40 0 0 1 381.22253651635316 -9.79334107942512 L 393.762637943991 -8.51366206436971 L 393.762637943991 -8.51366206436971"/><polygon points="-24.8621506177483,0 -27.62461179749811,9.20820393249937 0,0 -27.62461179749811,-9.20820393249937" fill="#000000" transform="translate(477.19151702364553 0) rotate(5.826689442008371) translate(-59 0)" stroke="none"/></g><g transform="translate(193.67868859651617 103.05012939141238) rotate(90) translate(0 -13)"><g transform="translate(0 0)"><g transform="translate(-27.4375 0)" fill="#ffffff" stroke="#000000" stroke-width="0"><rect x="0" y="0" width="54.875" height="26" rx="5" ry="5" stroke="none"/><text xml:space="preserve" x="5" y="17.319000244140625" stroke="none" text-anchor="left" font-family="sans-serif" font-size="16" font-weight="normal" fill="#000000">Writes</text></g></g></g></g><g class="relationship"><g transform="translate(203.67868859651614 341.6458879032351) rotate(-90)" stroke-width="5" stroke="#000000"><path d="M 58.695178092152055 5.989663490593891 L 95.96898050729243 9.793341079425122 A 40 40 0 0 0 100.02976931447472 10 L 238.59575851182277 10 L 377.1617477091708 10 A 40 40 0 0 0 381.22253651635316 9.79334107942512 L 393.762637943991 8.51366206436971 L 393.762637943991 8.51366206436971"/><polygon points="-24.8621506177483,0 -27.62461179749811,9.20820393249937 0,0 -27.62461179749811,-9.20820393249937" fill="#000000" transform="translate(477.19151702364553 0) rotate(-5.826689442008371) translate(-59 0)" stroke="none"/></g><g transform="translate(213.67868859651617 103.05012939141238) rotate(90) translate(0 -13)"><g transform="translate(0 0)"><g transform="translate(-110.86458587646484 0)" fill="#ffffff" stroke="#000000" stroke-width="0"><rect x="0" y="0" width="221.7291717529297" height="26" rx="5" ry="5" stroke="none"/><text xml:space="preserve" x="5" y="17.319000244140625" stroke="none" text-anchor="left" font-family="sans-serif" font-size="16" font-weight="normal" fill="#000000">Is the corresponding author of</text></g></g></g></g><g class="relationship"><g transform="translate(575.6767307913132 528.3254184406501) rotate(-119.26395225207432)" stroke-width="5" stroke="#000000"><path d="M 59 0 L 677.1288553649649 0"/><polygon points="-24.8621506177483,0 -27.62461179749811,9.20820393249937 0,0 -27.62461179749811,-9.20820393249937" fill="#000000" transform="translate(701.9910059827132 0) rotate(0)" stroke="none"/></g><g transform="translate(395.75443811898396 207.23447879151252) rotate(60.73604774792568) translate(0 -13)"><g transform="translate(0 0)"><g transform="translate(-27.4375 0)" fill="#ffffff" stroke="#000000" stroke-width="0"><rect x="0" y="0" width="54.875" height="26" rx="5" ry="5" stroke="none"/><text xml:space="preserve" x="5" y="17.319000244140625" stroke="none" text-anchor="left" font-family="sans-serif" font-size="16" font-weight="normal" fill="#000000">Writes</text></g></g></g></g><g class="relationship"><g transform="translate(203.67868859651614 -135.5456291204104) rotate(-1.768524679412564)" stroke-width="5" stroke="#000000"><path d="M 59 0 L 470.3925108655743 0"/><polygon points="-24.8621506177483,0 -27.62461179749811,9.20820393249937 0,0 -27.62461179749811,-9.20820393249937" fill="#000000" transform="translate(495.2546614833226 0) rotate(0)" stroke="none"/></g><g transform="translate(468.24885993441933 -143.71459958013432) rotate(-1.768524679412564) translate(0 -13)"><g transform="translate(0 0)"><g transform="translate(-38.67708206176758 0)" fill="#ffffff" stroke="#000000" stroke-width="0"><rect x="0" y="0" width="77.35416412353516" height="26" rx="5" ry="5" stroke="none"/><text xml:space="preserve" x="5" y="17.319000244140625" stroke="none" text-anchor="left" font-family="sans-serif" font-size="16" font-weight="normal" fill="#000000">Is cited in</text></g></g></g></g><g class="relationship"><g transform="translate(575.6767307913132 528.3254184406501) rotate(-75.03725035363381)" stroke-width="5" stroke="#000000"><path d="M 58.695178092152055 -5.989663490593891 L 95.96898050729243 -9.793341079425122 A 40 40 0 0 1 100.02976931447472 -10 L 352.4379371575208 -10 L 604.8461050005668 -10 A 40 40 0 0 1 608.9068938077492 -9.793341079425124 L 621.4469952353871 -8.51366206436971 L 621.4469952353871 -8.51366206436971"/><polygon points="-24.8621506177483,0 -27.62461179749811,9.20820393249937 0,0 -27.62461179749811,-9.20820393249937" fill="#000000" transform="translate(704.8758743150416 0) rotate(5.826689442008371) translate(-59 0)" stroke="none"/></g><g transform="translate(657.0120960733257 185.25537034217473) rotate(-75.03725035363381) translate(0 -13)"><g transform="translate(0 0)"><g transform="translate(-27.4375 0)" fill="#ffffff" stroke="#000000" stroke-width="0"><rect x="0" y="0" width="54.875" height="26" rx="5" ry="5" stroke="none"/><text xml:space="preserve" x="5" y="17.319000244140625" stroke="none" text-anchor="left" font-family="sans-serif" font-size="16" font-weight="normal" fill="#000000">Writes</text></g></g></g></g><g class="relationship"><g transform="translate(575.6767307913132 528.3254184406501) rotate(-75.03725035363381)" stroke-width="5" stroke="#000000"><path d="M 58.695178092152055 5.989663490593891 L 95.96898050729243 9.793341079425122 A 40 40 0 0 0 100.02976931447472 10 L 352.4379371575208 10 L 604.8461050005668 10 A 40 40 0 0 0 608.9068938077492 9.793341079425124 L 621.4469952353871 8.51366206436971 L 621.4469952353871 8.51366206436971"/><polygon points="-24.8621506177483,0 -27.62461179749811,9.20820393249937 0,0 -27.62461179749811,-9.20820393249937" fill="#000000" transform="translate(704.8758743150416 0) rotate(-5.826689442008371) translate(-59 0)" stroke="none"/></g><g transform="translate(676.3339738951631 190.41919038531955) rotate(-75.03725035363381) translate(0 -13)"><g transform="translate(0 0)"><g transform="translate(-102 0)" fill="#ffffff" stroke="#000000" stroke-width="0"><rect x="0" y="0" width="204" height="26" rx="5" ry="5" stroke="none"/><text xml:space="preserve" x="5" y="17.319000244140625" stroke="none" text-anchor="left" font-family="sans-serif" font-size="16" font-weight="normal" fill="#000000">Is the corresponding author</text></g></g></g></g><g class="relationship"><g transform="translate(389.567365459706 -413.4872285831976) rotate(123.77479585471568)" stroke-width="5" stroke="#000000"><path d="M 59 0 L 250.51209016326615 0"/><polygon points="-24.8621506177483,0 -27.62461179749811,9.20820393249937 0,0 -27.62461179749811,-9.20820393249937" fill="#000000" transform="translate(275.37424078101446 0) rotate(0)" stroke="none"/></g><g transform="translate(303.5338349173667 -284.8495004015758) rotate(303.7747958547157) translate(0 -13)"><g transform="translate(0 0)"><g transform="translate(-13.416666984558105 0)" fill="#ffffff" stroke="#000000" stroke-width="0"><rect x="0" y="0" width="26.83333396911621" height="26" rx="5" ry="5" stroke="none"/><text xml:space="preserve" x="5" y="17.319000244140625" stroke="none" text-anchor="left" font-family="sans-serif" font-size="16" font-weight="normal" fill="#000000">Of</text></g></g></g></g><g class="relationship"><g transform="translate(918.2161106488171 -753.3815332880392) rotate(139.15115703124619)" stroke-width="5" stroke="#000000"><path d="M 59 0 L 860.7461978483128 0"/><polygon points="-24.8621506177483,0 -27.62461179749811,9.20820393249937 0,0 -27.62461179749811,-9.20820393249937" fill="#000000" transform="translate(885.6083484660611 0) rotate(0)" stroke="none"/></g><g transform="translate(570.3507343687179 -452.5943209607665) rotate(319.1511570312462) translate(0 -13)"><g transform="translate(0 0)"><g transform="translate(-13.416666984558105 0)" fill="#ffffff" stroke="#000000" stroke-width="0"><rect x="0" y="0" width="26.83333396911621" height="26" rx="5" ry="5" stroke="none"/><text xml:space="preserve" x="5" y="17.319000244140625" stroke="none" text-anchor="left" font-family="sans-serif" font-size="16" font-weight="normal" fill="#000000">Of</text></g></g></g></g><g class="relationship"><g transform="translate(-7.265617589697318 -500.91188500229777) rotate(59.99999999999999)" stroke-width="5" stroke="#000000"><path d="M 59 0 L 338.02646175467845 0"/><polygon points="-24.8621506177483,0 -27.62461179749811,9.20820393249937 0,0 -27.62461179749811,-9.20820393249937" fill="#000000" transform="translate(362.88861237242673 0) rotate(0)" stroke="none"/></g><g transform="translate(91.99099784897233 -328.9943840751966) rotate(59.99999999999999) translate(0 -13)"><g transform="translate(0 0)"><g transform="translate(-13.416666984558105 0)" fill="#ffffff" stroke="#000000" stroke-width="0"><rect x="0" y="0" width="26.83333396911621" height="26" rx="5" ry="5" stroke="none"/><text xml:space="preserve" x="5" y="17.319000244140625" stroke="none" text-anchor="left" font-family="sans-serif" font-size="16" font-weight="normal" fill="#000000">Of</text></g></g></g></g><g class="relationship"><g transform="translate(-7.265617589697318 -500.91188500229777) rotate(88.92273727748079)" stroke-width="5" stroke="#000000"><path d="M 59 0 L 758.8445692555504 0"/><polygon points="-24.8621506177483,0 -27.62461179749811,9.20820393249937 0,0 -27.62461179749811,-9.20820393249937" fill="#000000" transform="translate(783.7067198732987 0) rotate(0)" stroke="none"/></g><g transform="translate(0.42239684258226085 -92.06187668716001) rotate(88.92273727748079) translate(0 -13)"><g transform="translate(0 0)"><g transform="translate(-14.302083015441895 0)" fill="#ffffff" stroke="#000000" stroke-width="0"><rect x="0" y="0" width="28.60416603088379" height="26" rx="5" ry="5" stroke="none"/><text xml:space="preserve" x="5" y="17.319000244140625" stroke="none" text-anchor="left" font-family="sans-serif" font-size="16" font-weight="normal" fill="#000000">By</text></g></g></g></g><g class="relationship"><g transform="translate(-7.265617589697318 -500.91188500229777) rotate(113.95613602571932)" stroke-width="5" stroke="#000000"><path d="M 59 0 L 838.1181638162824 0"/><polygon points="-24.8621506177483,0 -27.62461179749811,9.20820393249937 0,0 -27.62461179749811,-9.20820393249937" fill="#000000" transform="translate(862.9803144340307 0) rotate(0)" stroke="none"/></g><g transform="translate(-189.39726443947706 -90.99321846213928) rotate(293.9561360257193) translate(0 -13)"><g transform="translate(0 0)"><g transform="translate(-14.302083015441895 0)" fill="#ffffff" stroke="#000000" stroke-width="0"><rect x="0" y="0" width="28.60416603088379" height="26" rx="5" ry="5" stroke="none"/><text xml:space="preserve" x="5" y="17.319000244140625" stroke="none" text-anchor="left" font-family="sans-serif" font-size="16" font-weight="normal" fill="#000000">By</text></g></g></g></g><g class="relationship"><g transform="translate(-7.265617589697318 -500.91188500229777) rotate(102.01081394606877)" stroke-width="5" stroke="#000000"><path d="M 59 0 L 777.5534375019472 0"/><polygon points="-24.8621506177483,0 -27.62461179749811,9.20820393249937 0,0 -27.62461179749811,-9.20820393249937" fill="#000000" transform="translate(802.4155881196955 0) rotate(0)" stroke="none"/></g><g transform="translate(-94.30745583992639 -91.79193701258896) rotate(282.01081394606877) translate(0 -13)"><g transform="translate(0 0)"><g transform="translate(-14.302083015441895 0)" fill="#ffffff" stroke="#000000" stroke-width="0"><rect x="0" y="0" width="28.60416603088379" height="26" rx="5" ry="5" stroke="none"/><text xml:space="preserve" x="5" y="17.319000244140625" stroke="none" text-anchor="left" font-family="sans-serif" font-size="16" font-weight="normal" fill="#000000">By</text></g></g></g></g><g class="relationship"><g transform="translate(-288.3828245427427 -753.3815332880392) rotate(41.92681738713696)" stroke-width="5" stroke="#000000"><path d="M 59 0 L 293.9841241430429 0"/><polygon points="-24.8621506177483,0 -27.62461179749811,9.20820393249937 0,0 -27.62461179749811,-9.20820393249937" fill="#000000" transform="translate(318.84627476079123 0) rotate(0)" stroke="none"/></g><g transform="translate(-157.0729272297677 -635.4529157182833) rotate(41.92681738713696) translate(0 -22.6)"><g transform="translate(0 0)"><g transform="translate(-91.375 0)" fill="#ffffff" stroke="#000000" stroke-width="0"><rect x="0" y="0" width="182.75" height="26" rx="5" ry="5" stroke="none"/><text xml:space="preserve" x="5" y="17.319000244140625" stroke="none" text-anchor="left" font-family="sans-serif" font-size="16" font-weight="normal" fill="#000000">Assigns the reviewers of</text></g></g><g transform="translate(0 26)"><g transform="translate(-66.42708396911621 0)" fill="white"><rect x="0" y="0" width="132.85416793823242" height="19.2" rx="0" ry="0" stroke="none"/><g font-family="sans-serif" font-size="16" font-weight="normal" fill="#000000" text-anchor="end"><text xml:space="preserve" x="42.52083206176758" y="13.919000244140625" stroke="none">Date:</text><text xml:space="preserve" x="46.95833206176758" y="13.919000244140625" stroke="none" text-anchor="start">1950-07-03</text></g></g></g></g></g><g class="relationship"><g transform="translate(-657.8757362872634 -753.3815332880392) rotate(56.13446705109278)" stroke-width="5" stroke="#000000"><path d="M 59 0 L 355.98011554469105 0"/><polygon points="-24.8621506177483,0 -27.62461179749811,9.20820393249937 0,0 -27.62461179749811,-9.20820393249937" fill="#000000" transform="translate(380.84226616243933 0) rotate(0)" stroke="none"/></g><g transform="translate(-542.2527931834351 -581.0926505869777) rotate(56.13446705109278) translate(0 -22.6)"><g transform="translate(0 0)"><g transform="translate(-91.375 0)" fill="#ffffff" stroke="#000000" stroke-width="0"><rect x="0" y="0" width="182.75" height="26" rx="5" ry="5" stroke="none"/><text xml:space="preserve" x="5" y="17.319000244140625" stroke="none" text-anchor="left" font-family="sans-serif" font-size="16" font-weight="normal" fill="#000000">Assigns the reviewers of</text></g></g><g transform="translate(0 26)"><g transform="translate(-66.42708396911621 0)" fill="white"><rect x="0" y="0" width="132.85416793823242" height="19.2" rx="0" ry="0" stroke="none"/><g font-family="sans-serif" font-size="16" font-weight="normal" fill="#000000" text-anchor="end"><text xml:space="preserve" x="42.52083206176758" y="13.919000244140625" stroke="none">Date:</text><text xml:space="preserve" x="46.95833206176758" y="13.919000244140625" stroke="none" text-anchor="start">2023-07-02</text></g></g></g></g></g><g class="relationship"><g transform="translate(-412.7755234811307 -388.15953944689807) rotate(11.376741669344177)" stroke-width="5" stroke="#000000"><path d="M 59 0 L 1110.041327765319 0"/><polygon points="-24.8621506177483,0 -27.62461179749811,9.20820393249937 0,0 -27.62461179749811,-9.20820393249937" fill="#000000" transform="translate(1134.9034783830673 0) rotate(0)" stroke="none"/></g><g transform="translate(160.260086638409 -272.857345015257) rotate(11.376741669344177) translate(0 -13)"><g transform="translate(0 0)"><g transform="translate(-13.416666984558105 0)" fill="#ffffff" stroke="#000000" stroke-width="0"><rect x="0" y="0" width="26.83333396911621" height="26" rx="5" ry="5" stroke="none"/><text xml:space="preserve" x="5" y="17.319000244140625" stroke="none" text-anchor="left" font-family="sans-serif" font-size="16" font-weight="normal" fill="#000000">Of</text></g></g></g></g><g class="relationship"><g transform="translate(-412.7755234811307 -388.15953944689807) rotate(49.81278948042695)" stroke-width="5" stroke="#000000"><path d="M 59 0 L 871.4554705836943 0"/><polygon points="-24.8621506177483,0 -27.62461179749811,9.20820393249937 0,0 -27.62461179749811,-9.20820393249937" fill="#000000" transform="translate(896.3176212014425 0) rotate(0)" stroke="none"/></g><g transform="translate(-112.57003095046423 -32.75342253386435) rotate(49.81278948042695) translate(0 -13)"><g transform="translate(0 0)"><g transform="translate(-14.302083015441895 0)" fill="#ffffff" stroke="#000000" stroke-width="0"><rect x="0" y="0" width="28.60416603088379" height="26" rx="5" ry="5" stroke="none"/><text xml:space="preserve" x="5" y="17.319000244140625" stroke="none" text-anchor="left" font-family="sans-serif" font-size="16" font-weight="normal" fill="#000000">By</text></g></g></g></g><g class="relationship"><g transform="translate(-412.7755234811307 -388.15953944689807) rotate(59.99999999999999)" stroke-width="5" stroke="#000000"><path d="M 59 0 L 758.8445692555504 0"/><polygon points="-24.8621506177483,0 -27.62461179749811,9.20820393249937 0,0 -27.62461179749811,-9.20820393249937" fill="#000000" transform="translate(783.7067198732987 0) rotate(0)" stroke="none"/></g><g transform="translate(-208.31438116724303 -34.02245278567392) rotate(59.99999999999999) translate(0 -13)"><g transform="translate(0 0)"><g transform="translate(-14.302083015441895 0)" fill="#ffffff" stroke="#000000" stroke-width="0"><rect x="0" y="0" width="28.60416603088379" height="26" rx="5" ry="5" stroke="none"/><text xml:space="preserve" x="5" y="17.319000244140625" stroke="none" text-anchor="left" font-family="sans-serif" font-size="16" font-weight="normal" fill="#000000">By</text></g></g></g></g><g class="relationship"><g transform="translate(-412.7755234811307 -388.15953944689807) rotate(72.7756451985502)" stroke-width="5" stroke="#000000"><path d="M 59 0 L 680.2099396155832 0"/><polygon points="-24.8621506177483,0 -27.62461179749811,9.20820393249937 0,0 -27.62461179749811,-9.20820393249937" fill="#000000" transform="translate(705.0720902333314 0) rotate(0)" stroke="none"/></g><g transform="translate(-303.3302860726918 -35.13039940994736) rotate(72.7756451985502) translate(0 -13)"><g transform="translate(0 0)"><g transform="translate(-14.302083015441895 0)" fill="#ffffff" stroke="#000000" stroke-width="0"><rect x="0" y="0" width="28.60416603088379" height="26" rx="5" ry="5" stroke="none"/><text xml:space="preserve" x="5" y="17.319000244140625" stroke="none" text-anchor="left" font-family="sans-serif" font-size="16" font-weight="normal" fill="#000000">By</text></g></g></g></g><g class="relationship"><g transform="translate(-412.7755234811307 -388.15953944689807) rotate(87.555820349907)" stroke-width="5" stroke="#000000"><path d="M 59 0 L 646.6078264790087 0"/><polygon points="-24.8621506177483,0 -27.62461179749811,9.20820393249937 0,0 -27.62461179749811,-9.20820393249937" fill="#000000" transform="translate(671.469977096757 0) rotate(0)" stroke="none"/></g><g transform="translate(-397.7298318532106 -35.6765918302151) rotate(87.555820349907) translate(0 -13)"><g transform="translate(0 0)"><g transform="translate(-14.302083015441895 0)" fill="#ffffff" stroke="#000000" stroke-width="0"><rect x="0" y="0" width="28.60416603088379" height="26" rx="5" ry="5" stroke="none"/><text xml:space="preserve" x="5" y="17.319000244140625" stroke="none" text-anchor="left" font-family="sans-serif" font-size="16" font-weight="normal" fill="#000000">By</text></g></g></g></g><g class="relationship"><g transform="translate(-412.7755234811307 -388.15953944689807) rotate(-161.03620558956365)" stroke-width="5" stroke="#000000"><path d="M 59 0 L 447.98748137127063 0"/><polygon points="-24.8621506177483,0 -27.62461179749811,9.20820393249937 0,0 -27.62461179749811,-9.20820393249937" fill="#000000" transform="translate(472.8496319890189 0) rotate(0)" stroke="none"/></g><g transform="translate(-652.5106671816376 -470.53755497102577) rotate(18.963794410436364) translate(0 -13)"><g transform="translate(0 0)"><g transform="translate(-16.947916984558105 0)" fill="#ffffff" stroke="#000000" stroke-width="0"><rect x="0" y="0" width="33.89583396911621" height="26" rx="5" ry="5" stroke="none"/><text xml:space="preserve" x="5" y="17.319000244140625" stroke="none" text-anchor="left" font-family="sans-serif" font-size="16" font-weight="normal" fill="#000000">For</text></g></g></g></g><g class="relationship"><g transform="translate(918.2161106488171 -753.3815332880392) rotate(104.9627496463662)" stroke-width="5" stroke="#000000"><path d="M 59 0 L 537.9518170660142 0"/><polygon points="-24.8621506177483,0 -27.62461179749811,9.20820393249937 0,0 -27.62461179749811,-9.20820393249937" fill="#000000" transform="translate(562.8139676837625 0) rotate(0)" stroke="none"/></g><g transform="translate(841.1523167048867 -465.0257814162039) rotate(284.9627496463662) translate(0 -13)"><g transform="translate(0 0)"><g transform="translate(-13.416666984558105 0)" fill="#ffffff" stroke="#000000" stroke-width="0"><rect x="0" y="0" width="26.83333396911621" height="26" rx="5" ry="5" stroke="none"/><text xml:space="preserve" x="5" y="17.319000244140625" stroke="none" text-anchor="left" font-family="sans-serif" font-size="16" font-weight="normal" fill="#000000">Of</text></g></g></g></g><g class="relationship"><g transform="translate(389.567365459706 -413.4872285831976) rotate(35.3213150392222)" stroke-width="5" stroke="#000000"><path d="M 59 0 L 367.28602395835566 0"/><polygon points="-24.8621506177483,0 -27.62461179749811,9.20820393249937 0,0 -27.62461179749811,-9.20820393249937" fill="#000000" transform="translate(392.14817457610394 0) rotate(0)" stroke="none"/></g><g transform="translate(563.4755575239666 -290.2562085902746) rotate(35.3213150392222) translate(0 -13)"><g transform="translate(0 0)"><g transform="translate(-13.416666984558105 0)" fill="#ffffff" stroke="#000000" stroke-width="0"><rect x="0" y="0" width="26.83333396911621" height="26" rx="5" ry="5" stroke="none"/><text xml:space="preserve" x="5" y="17.319000244140625" stroke="none" text-anchor="left" font-family="sans-serif" font-size="16" font-weight="normal" fill="#000000">Of</text></g></g></g></g><g class="relationship"><g transform="translate(-7.265617589697318 -500.91188500229777) rotate(-90)" stroke-width="5" stroke="#000000"><path d="M 59 0 L 168.6074976679932 0"/><polygon points="-24.8621506177483,0 -27.62461179749811,9.20820393249937 0,0 -27.62461179749811,-9.20820393249937" fill="#000000" transform="translate(193.46964828574147 0) rotate(0)" stroke="none"/></g><g transform="translate(-7.265617589697311 -614.7156338362944) rotate(90) translate(0 -13)"><g transform="translate(0 0)"><g transform="translate(-16.947916984558105 0)" fill="#ffffff" stroke="#000000" stroke-width="0"><rect x="0" y="0" width="33.89583396911621" height="26" rx="5" ry="5" stroke="none"/><text xml:space="preserve" x="5" y="17.319000244140625" stroke="none" text-anchor="left" font-family="sans-serif" font-size="16" font-weight="normal" fill="#000000">For</text></g></g></g></g><g class="relationship"><g transform="translate(-7.265617589697318 -753.3815332880392) rotate(-90)" stroke-width="5" stroke="#000000"><path d="M 59 0 L 274.8863865904507 0"/><polygon points="-24.8621506177483,0 -27.62461179749811,9.20820393249937 0,0 -27.62461179749811,-9.20820393249937" fill="#000000" transform="translate(299.74853720819897 0) rotate(0)" stroke="none"/></g><g transform="translate(-7.265617589697308 -920.3247265832646) rotate(90) translate(0 -13)"><g transform="translate(0 0)"><g transform="translate(-13.416666984558105 0)" fill="#ffffff" stroke="#000000" stroke-width="0"><rect x="0" y="0" width="26.83333396911621" height="26" rx="5" ry="5" stroke="none"/><text xml:space="preserve" x="5" y="17.319000244140625" stroke="none" text-anchor="left" font-family="sans-serif" font-size="16" font-weight="normal" fill="#000000">Of</text></g></g></g></g><g class="relationship"><g transform="translate(918.2161106488171 -753.3815332880392) rotate(120.00000000000001)" stroke-width="5" stroke="#000000"><path d="M 59 0 L 860.7461978483125 0"/><polygon points="-24.8621506177483,0 -27.62461179749811,9.20820393249937 0,0 -27.62461179749811,-9.20820393249937" fill="#000000" transform="translate(885.6083484660608 0) rotate(0)" stroke="none"/></g><g transform="translate(688.2795611867389 -355.11974710264576) rotate(300.00000000000006) translate(0 -13)"><g transform="translate(0 0)"><g transform="translate(-13.416666984558105 0)" fill="#ffffff" stroke="#000000" stroke-width="0"><rect x="0" y="0" width="26.83333396911621" height="26" rx="5" ry="5" stroke="none"/><text xml:space="preserve" x="5" y="17.319000244140625" stroke="none" text-anchor="left" font-family="sans-serif" font-size="16" font-weight="normal" fill="#000000">Of</text></g></g></g></g><g class="relationship"><g transform="translate(203.67868859651614 341.6458879032351) rotate(-48.82787623719194)" stroke-width="5" stroke="#000000"><path d="M 58.695178092152055 -5.989663490593891 L 95.96898050729243 -9.793341079425122 A 40 40 0 0 1 100.02976931447472 -10 L 183.977420228224 -10 L 267.92507114197326 -10 A 40 40 0 0 1 271.9858599491556 -9.79334107942512 L 284.5259613767935 -8.51366206436971 L 284.5259613767935 -8.51366206436971"/><polygon points="-24.8621506177483,0 -27.62461179749811,9.20820393249937 0,0 -27.62461179749811,-9.20820393249937" fill="#000000" transform="translate(367.954840456448 0) rotate(5.826689442008371) translate(-59 0)" stroke="none"/></g><g transform="translate(317.2679595720464 196.57635742532918) rotate(-48.82787623719194) translate(0 -13)"><g transform="translate(0 0)"><g transform="translate(-27.4375 0)" fill="#ffffff" stroke="#000000" stroke-width="0"><rect x="0" y="0" width="54.875" height="26" rx="5" ry="5" stroke="none"/><text xml:space="preserve" x="5" y="17.319000244140625" stroke="none" text-anchor="left" font-family="sans-serif" font-size="16" font-weight="normal" fill="#000000">Writes</text></g></g></g></g><g class="relationship"><g transform="translate(203.67868859651614 341.6458879032351) rotate(-48.82787623719194)" stroke-width="5" stroke="#000000"><path d="M 58.695178092152055 5.989663490593891 L 95.96898050729243 9.793341079425122 A 40 40 0 0 0 100.02976931447472 10 L 183.977420228224 10 L 267.92507114197326 10 A 40 40 0 0 0 271.9858599491556 9.79334107942512 L 284.5259613767935 8.51366206436971 L 284.5259613767935 8.51366206436971"/><polygon points="-24.8621506177483,0 -27.62461179749811,9.20820393249937 0,0 -27.62461179749811,-9.20820393249937" fill="#000000" transform="translate(367.954840456448 0) rotate(-5.826689442008371) translate(-59 0)" stroke="none"/></g><g transform="translate(332.3226654402566 209.74282358833878) rotate(-48.82787623719194) translate(0 -13)"><g transform="translate(0 0)"><g transform="translate(-110.86458587646484 0)" fill="#ffffff" stroke="#000000" stroke-width="0"><rect x="0" y="0" width="221.7291717529297" height="26" rx="5" ry="5" stroke="none"/><text xml:space="preserve" x="5" y="17.319000244140625" stroke="none" text-anchor="left" font-family="sans-serif" font-size="16" font-weight="normal" fill="#000000">Is the corresponding author of</text></g></g></g></g><g class="relationship"><g transform="translate(575.6767307913132 528.3254184406501) rotate(-105.63562280105654)" stroke-width="5" stroke="#000000"><path d="M 59 0 L 397.6066387991256 0"/><polygon points="-24.8621506177483,0 -27.62461179749811,9.20820393249937 0,0 -27.62461179749811,-9.20820393249937" fill="#000000" transform="translate(422.4687894168739 0) rotate(0)" stroke="none"/></g><g transform="translate(514.1447396252497 308.470421426713) rotate(74.36437719894346) translate(0 -13)"><g transform="translate(0 0)"><g transform="translate(-27.4375 0)" fill="#ffffff" stroke="#000000" stroke-width="0"><rect x="0" y="0" width="54.875" height="26" rx="5" ry="5" stroke="none"/><text xml:space="preserve" x="5" y="17.319000244140625" stroke="none" text-anchor="left" font-family="sans-serif" font-size="16" font-weight="normal" fill="#000000">Writes</text></g></g></g></g><g class="relationship"><g transform="translate(389.567365459706 -413.4872285831976) rotate(83.27948004334463)" stroke-width="5" stroke="#000000"><path d="M 59 0 L 397.60663879912516 0"/><polygon points="-24.8621506177483,0 -27.62461179749811,9.20820393249937 0,0 -27.62461179749811,-9.20820393249937" fill="#000000" transform="translate(422.46878941687345 0) rotate(0)" stroke="none"/></g><g transform="translate(416.28488664108346 -186.75262665666907) rotate(83.27948004334463) translate(0 -13)"><g transform="translate(0 0)"><g transform="translate(-13.416666984558105 0)" fill="#ffffff" stroke="#000000" stroke-width="0"><rect x="0" y="0" width="26.83333396911621" height="26" rx="5" ry="5" stroke="none"/><text xml:space="preserve" x="5" y="17.319000244140625" stroke="none" text-anchor="left" font-family="sans-serif" font-size="16" font-weight="normal" fill="#000000">Of</text></g></g></g></g><g class="relationship"><g transform="translate(899.0732376614795 849.5716908919978) rotate(-120.00000000000001)" stroke-width="5" stroke="#000000"><path d="M 59 0 L 822.4604518736368 0"/><polygon points="-24.8621506177483,0 -27.62461179749811,9.20820393249937 0,0 -27.62461179749811,-9.20820393249937" fill="#000000" transform="translate(847.322602491385 0) rotate(0)" stroke="none"/></g><g transform="translate(678.7081246930702 467.88811901505784) rotate(59.999999999999986) translate(0 -13)"><g transform="translate(0 0)"><g transform="translate(-13.416666984558105 0)" fill="#ffffff" stroke="#000000" stroke-width="0"><rect x="0" y="0" width="26.83333396911621" height="26" rx="5" ry="5" stroke="none"/><text xml:space="preserve" x="5" y="17.319000244140625" stroke="none" text-anchor="left" font-family="sans-serif" font-size="16" font-weight="normal" fill="#000000">Of</text></g></g></g></g><g class="relationship"><g transform="translate(899.0732376614795 528.3254184406501) rotate(90)" stroke-width="5" stroke="#000000"><path d="M 59 0 L 237.38412183359944 0"/><polygon points="-24.8621506177483,0 -27.62461179749811,9.20820393249937 0,0 -27.62461179749811,-9.20820393249937" fill="#000000" transform="translate(262.24627245134775 0) rotate(0)" stroke="none"/></g><g transform="translate(899.0732376614795 676.5174793574498) rotate(270) translate(0 -13)"><g transform="translate(0 0)"><g transform="translate(-91.375 0)" fill="#ffffff" stroke="#000000" stroke-width="0"><rect x="0" y="0" width="182.75" height="26" rx="5" ry="5" stroke="none"/><text xml:space="preserve" x="5" y="17.319000244140625" stroke="none" text-anchor="left" font-family="sans-serif" font-size="16" font-weight="normal" fill="#000000">Assigns the reviewers of</text></g></g></g></g><g class="relationship"><g transform="translate(899.0732376614795 849.5716908919978) rotate(-150.3001847836705)" stroke-width="5" stroke="#000000"><path d="M 59 0 L 941.3064603486353 0"/><polygon points="-24.8621506177483,0 -27.62461179749811,9.20820393249937 0,0 -27.62461179749811,-9.20820393249937" fill="#000000" transform="translate(966.1686109663835 0) rotate(0)" stroke="none"/></g><g transform="translate(464.6235806936455 601.7678385927745) rotate(29.69981521632951) translate(0 -13)"><g transform="translate(0 0)"><g transform="translate(-14.302083015441895 0)" fill="#ffffff" stroke="#000000" stroke-width="0"><rect x="0" y="0" width="28.60416603088379" height="26" rx="5" ry="5" stroke="none"/><text xml:space="preserve" x="5" y="17.319000244140625" stroke="none" text-anchor="left" font-family="sans-serif" font-size="16" font-weight="normal" fill="#000000">By</text></g></g></g></g><g class="relationship"><g transform="translate(899.0732376614795 849.5716908919978) rotate(-154.92617508799978)" stroke-width="5" stroke="#000000"><path d="M 59 0 L 1114.6819022325142 0"/><polygon points="-24.8621506177483,0 -27.62461179749811,9.20820393249937 0,0 -27.62461179749811,-9.20820393249937" fill="#000000" transform="translate(1139.5440528502625 0) rotate(0)" stroke="none"/></g><g transform="translate(367.53471279261885 600.8769010646497) rotate(25.073824912000237) translate(0 -13)"><g transform="translate(0 0)"><g transform="translate(-14.302083015441895 0)" fill="#ffffff" stroke="#000000" stroke-width="0"><rect x="0" y="0" width="28.60416603088379" height="26" rx="5" ry="5" stroke="none"/><text xml:space="preserve" x="5" y="17.319000244140625" stroke="none" text-anchor="left" font-family="sans-serif" font-size="16" font-weight="normal" fill="#000000">By</text></g></g></g></g><g class="relationship"><g transform="translate(899.0732376614795 849.5716908919978) rotate(-158.3666716067672)" stroke-width="5" stroke="#000000"><path d="M 59 0 L 1293.8800957211695 0"/><polygon points="-24.8621506177483,0 -27.62461179749811,9.20820393249937 0,0 -27.62461179749811,-9.20820393249937" fill="#000000" transform="translate(1318.7422463389178 0) rotate(0)" stroke="none"/></g><g transform="translate(270.2801425573349 600.1916959064732) rotate(21.633328393232794) translate(0 -13)"><g transform="translate(0 0)"><g transform="translate(-14.302083015441895 0)" fill="#ffffff" stroke="#000000" stroke-width="0"><rect x="0" y="0" width="28.60416603088379" height="26" rx="5" ry="5" stroke="none"/><text xml:space="preserve" x="5" y="17.319000244140625" stroke="none" text-anchor="left" font-family="sans-serif" font-size="16" font-weight="normal" fill="#000000">By</text></g></g></g></g><g class="relationship"><g transform="translate(899.0732376614795 849.5716908919978) rotate(-50.113622246780714)" stroke-width="5" stroke="#000000"><path d="M 59 0 L 334.79924470098996 0"/><polygon points="-24.8621506177483,0 -27.62461179749811,9.20820393249937 0,0 -27.62461179749811,-9.20820393249937" fill="#000000" transform="translate(359.66139531873824 0) rotate(0)" stroke="none"/></g><g transform="translate(1025.338510628873 698.487137994499) rotate(-50.113622246780714) translate(0 -13)"><g transform="translate(0 0)"><g transform="translate(-16.947916984558105 0)" fill="#ffffff" stroke="#000000" stroke-width="0"><rect x="0" y="0" width="33.89583396911621" height="26" rx="5" ry="5" stroke="none"/><text xml:space="preserve" x="5" y="17.319000244140625" stroke="none" text-anchor="left" font-family="sans-serif" font-size="16" font-weight="normal" fill="#000000">For</text></g></g></g></g><g class="relationship"><g transform="translate(-1171.2495679995861 -413.4872285831976) rotate(-30.00000000000003)" stroke-width="5" stroke="#000000"><path d="M 59 0 L 211.15346970702134 0"/><polygon points="-24.8621506177483,0 -27.62461179749811,9.20820393249937 0,0 -27.62461179749811,-9.20820393249937" fill="#000000" transform="translate(236.01562032476966 0) rotate(0)" stroke="none"/></g><g transform="translate(-1054.269684156191 -481.025596009953) rotate(-30.00000000000003) translate(0 -13)"><g transform="translate(0 0)"><g transform="translate(-19.166666984558105 0)" fill="#ffffff" stroke="#000000" stroke-width="0"><rect x="0" y="0" width="38.33333396911621" height="26" rx="5" ry="5" stroke="none"/><text xml:space="preserve" x="5" y="17.319000244140625" stroke="none" text-anchor="left" font-family="sans-serif" font-size="16" font-weight="normal" fill="#000000">Has</text></g></g></g></g><g class="node"><g fill="#ffffff" stroke="#000000" stroke-width="4"><circle cx="575.6767307913132" cy="528.3254184406501" r="52"/></g><g transform="translate(575.6767307913132 528.3254184406501)"><g transform="scale(0.49961576953703324) translate(0 -27)"><g transform="translate(0 0)"><g transform="translate(-85.92708206176758 0)"><g fill="#ffffff" stroke="#000000" stroke-width="4"><rect x="0" y="0" width="171.85416412353516" height="54" rx="27" ry="27"/><text xml:space="preserve" x="27" y="37.83984375" stroke="none" font-family="sans-serif" font-size="40" font-weight="normal" fill="#000000">Author</text></g></g></g></g><g transform="translate(3.429011037612589e-15 56)"><g transform="translate(0 0)"><g transform="translate(-61.10416603088379 0)" fill="white"><rect x="0" y="0" width="122.20833206176758" height="38.4" rx="0" ry="0" stroke="none"/><g font-family="sans-serif" font-size="16" font-weight="normal" fill="#000000" text-anchor="end"><text xml:space="preserve" x="73.5" y="13.919000244140625" stroke="none">Name:</text><text xml:space="preserve" x="77.9375" y="13.919000244140625" stroke="none" text-anchor="start">Marie</text><text xml:space="preserve" x="73.5" y="33.11900024414062" stroke="none" text-anchor="end">Surname:</text><text xml:space="preserve" x="77.9375" y="33.11900024414062" stroke="none" text-anchor="start">Curie</text></g></g></g></g></g></g><g class="node"><g fill="#ffffff" stroke="#000000" stroke-width="4"><circle cx="203.67868859651614" cy="341.6458879032351" r="52"/></g><g transform="translate(203.67868859651614 341.6458879032351)"><g transform="scale(0.49961576953703324) translate(0 -27)"><g transform="translate(0 0)"><g transform="translate(-85.92708206176758 0)"><g fill="#ffffff" stroke="#000000" stroke-width="4"><rect x="0" y="0" width="171.85416412353516" height="54" rx="27" ry="27"/><text xml:space="preserve" x="27" y="37.83984375" stroke="none" font-family="sans-serif" font-size="40" font-weight="normal" fill="#000000">Author</text></g></g></g></g><g transform="translate(3.429011037612589e-15 56)"><g transform="translate(0 0)"><g transform="translate(-69.53125 0)" fill="white"><rect x="0" y="0" width="139.0625" height="38.4" rx="0" ry="0" stroke="none"/><g font-family="sans-serif" font-size="16" font-weight="normal" fill="#000000" text-anchor="end"><text xml:space="preserve" x="73.5" y="13.919000244140625" stroke="none">Name:</text><text xml:space="preserve" x="77.9375" y="13.919000244140625" stroke="none" text-anchor="start">Albert</text><text xml:space="preserve" x="73.5" y="33.11900024414062" stroke="none" text-anchor="end">Surname:</text><text xml:space="preserve" x="77.9375" y="33.11900024414062" stroke="none" text-anchor="start">Einstein</text></g></g></g></g></g></g><g class="node"><g fill="#ffffff" stroke="#000000" stroke-width="4"><circle cx="203.67868859651614" cy="-135.5456291204104" r="52"/></g><g transform="translate(203.67868859651614 -135.5456291204104)"><g transform="scale(0.5307304731141692) translate(0 -27)"><g transform="translate(0 0)"><g transform="translate(-80.375 0)"><g fill="#ffffff" stroke="#000000" stroke-width="4"><rect x="0" y="0" width="160.75" height="54" rx="27" ry="27"/><text xml:space="preserve" x="27" y="37.83984375" stroke="none" font-family="sans-serif" font-size="40" font-weight="normal" fill="#000000">Paper</text></g></g></g></g><g transform="translate(-56 -19.199999999999992)"><g transform="translate(0 0)"><g transform="translate(-338.4166679382324 0)" fill="white"><rect x="0" y="0" width="338.4166679382324" height="38.4" rx="0" ry="0" stroke="none"/><g font-family="sans-serif" font-size="16" font-weight="normal" fill="#000000" text-anchor="end"><text xml:space="preserve" x="67.35416793823242" y="13.919000244140625" stroke="none">Title:</text><text xml:space="preserve" x="71.79166793823242" y="13.919000244140625" stroke="none" text-anchor="start">Quantum Physics</text><text xml:space="preserve" x="67.35416793823242" y="33.11900024414062" stroke="none" text-anchor="end">Abstract:</text><text xml:space="preserve" x="71.79166793823242" y="33.11900024414062" stroke="none" text-anchor="start">New discoveries in Quantum Physics</text></g></g></g></g></g></g><g class="node"><g fill="#ffffff" stroke="#000000" stroke-width="4"><circle cx="757.6693391771757" cy="-152.65085771315577" r="52"/></g><g transform="translate(757.6693391771757 -152.65085771315577)"><g transform="scale(0.5307304731141692) translate(0 -27)"><g transform="translate(0 0)"><g transform="translate(-80.375 0)"><g fill="#ffffff" stroke="#000000" stroke-width="4"><rect x="0" y="0" width="160.75" height="54" rx="27" ry="27"/><text xml:space="preserve" x="27" y="37.83984375" stroke="none" font-family="sans-serif" font-size="40" font-weight="normal" fill="#000000">Paper</text></g></g></g></g><g transform="translate(56 -19.2)"><g transform="translate(0 0)"><g transform="translate(0 0)" fill="white"><rect x="0" y="0" width="387.1875114440918" height="38.4" rx="0" ry="0" stroke="none"/><g font-family="sans-serif" font-size="16" font-weight="normal" fill="#000000" text-anchor="end"><text xml:space="preserve" x="67.35416793823242" y="13.919000244140625" stroke="none">Title:</text><text xml:space="preserve" x="71.79166793823242" y="13.919000244140625" stroke="none" text-anchor="start">New Quantum Physics</text><text xml:space="preserve" x="67.35416793823242" y="33.11900024414062" stroke="none" text-anchor="end">Abstract:</text><text xml:space="preserve" x="71.79166793823242" y="33.11900024414062" stroke="none" text-anchor="start">Very recent discoveries in Quantum Physics</text></g></g></g></g></g></g><g class="node"><g fill="#ffffff" stroke="#000000" stroke-width="4"><circle cx="389.567365459706" cy="-413.4872285831976" r="52"/></g><g transform="translate(389.567365459706 -413.4872285831976)"><g transform="scale(0.41572601510714385) translate(0 -27)"><g transform="translate(0 0)"><g transform="translate(-104.82291412353516 0)"><g fill="#ffffff" stroke="#000000" stroke-width="4"><rect x="0" y="0" width="209.6458282470703" height="54" rx="27" ry="27"/><text xml:space="preserve" x="27" y="37.83984375" stroke="none" font-family="sans-serif" font-size="40" font-weight="normal" fill="#000000">Keyword</text></g></g></g></g><g transform="translate(3.429011037612589e-15 -75.2)"><g transform="translate(0 0)"><g transform="translate(-57.58333396911621 0)" fill="white"><rect x="0" y="0" width="115.16666793823242" height="19.2" rx="0" ry="0" stroke="none"/><g font-family="sans-serif" font-size="16" font-weight="normal" fill="#000000" text-anchor="end"><text xml:space="preserve" x="51.35416793823242" y="13.919000244140625" stroke="none">Name:</text><text xml:space="preserve" x="55.79166793823242" y="13.919000244140625" stroke="none" text-anchor="start">Physics</text></g></g></g></g></g></g><g class="node"><g fill="#ffffff" stroke="#000000" stroke-width="4"><circle cx="918.2161106488171" cy="-753.3815332880392" r="52"/></g><g transform="translate(918.2161106488171 -753.3815332880392)"><g transform="scale(0.41572601510714385) translate(0 -27)"><g transform="translate(0 0)"><g transform="translate(-104.82291412353516 0)"><g fill="#ffffff" stroke="#000000" stroke-width="4"><rect x="0" y="0" width="209.6458282470703" height="54" rx="27" ry="27"/><text xml:space="preserve" x="27" y="37.83984375" stroke="none" font-family="sans-serif" font-size="40" font-weight="normal" fill="#000000">Keyword</text></g></g></g></g><g transform="translate(39.59797974644666 -58.79797974644666)"><g transform="translate(0 0)"><g transform="translate(0 0)" fill="white"><rect x="0" y="0" width="185.12500381469727" height="19.2" rx="0" ry="0" stroke="none"/><g font-family="sans-serif" font-size="16" font-weight="normal" fill="#000000" text-anchor="end"><text xml:space="preserve" x="51.35416793823242" y="13.919000244140625" stroke="none">Name:</text><text xml:space="preserve" x="55.79166793823242" y="13.919000244140625" stroke="none" text-anchor="start">Quantum Physics</text></g></g></g></g></g></g><g class="node"><g fill="#ffffff" stroke="#000000" stroke-width="4"><circle cx="-7.265617589697318" cy="-500.91188500229777" r="52"/></g><g transform="translate(-7.265617589697318 -500.91188500229777)"><g transform="scale(0.46656298502353954) translate(0 -27)"><g transform="translate(0 0)"><g transform="translate(-92.59375 0)"><g fill="#ffffff" stroke="#000000" stroke-width="4"><rect x="0" y="0" width="185.1875" height="54" rx="27" ry="27"/><text xml:space="preserve" x="27" y="37.83984375" stroke="none" font-family="sans-serif" font-size="40" font-weight="normal" fill="#000000">Review</text></g></g></g></g><g transform="translate(56 -9.6)"><g transform="translate(0 0)"><g transform="translate(0 0)" fill="white"><rect x="0" y="0" width="132.85416793823242" height="19.2" rx="0" ry="0" stroke="none"/><g font-family="sans-serif" font-size="16" font-weight="normal" fill="#000000" text-anchor="end"><text xml:space="preserve" x="42.52083206176758" y="13.919000244140625" stroke="none">Date:</text><text xml:space="preserve" x="46.95833206176758" y="13.919000244140625" stroke="none" text-anchor="start">1950-07-23</text></g></g></g></g></g></g><g class="node"><g fill="#ffffff" stroke="#000000" stroke-width="4"><circle cx="8.577836455518748" cy="341.6458879032351" r="52"/></g><g transform="translate(8.577836455518748 341.6458879032351)"><g transform="scale(0.49961576953703324) translate(0 -27)"><g transform="translate(0 0)"><g transform="translate(-85.92708206176758 0)"><g fill="#ffffff" stroke="#000000" stroke-width="4"><rect x="0" y="0" width="171.85416412353516" height="54" rx="27" ry="27"/><text xml:space="preserve" x="27" y="37.83984375" stroke="none" font-family="sans-serif" font-size="40" font-weight="normal" fill="#000000">Author</text></g></g></g></g><g transform="translate(-39.597979746446654 39.59797974644666)"><g transform="translate(0 0)"><g transform="translate(-151.41666412353516 0)" fill="white"><rect x="0" y="0" width="151.41666412353516" height="38.4" rx="0" ry="0" stroke="none"/><g font-family="sans-serif" font-size="16" font-weight="normal" fill="#000000" text-anchor="end"><text xml:space="preserve" x="73.5" y="13.919000244140625" stroke="none">Name:</text><text xml:space="preserve" x="77.9375" y="13.919000244140625" stroke="none" text-anchor="start">Von</text><text xml:space="preserve" x="73.5" y="33.11900024414062" stroke="none" text-anchor="end">Surname:</text><text xml:space="preserve" x="77.9375" y="33.11900024414062" stroke="none" text-anchor="start">Neumann</text></g></g></g></g></g></g><g class="node"><g fill="#ffffff" stroke="#000000" stroke-width="4"><circle cx="-381.62386782647616" cy="341.6458879032351" r="52"/></g><g transform="translate(-381.62386782647616 341.6458879032351)"><g transform="scale(0.49961576953703324) translate(0 -27)"><g transform="translate(0 0)"><g transform="translate(-85.92708206176758 0)"><g fill="#ffffff" stroke="#000000" stroke-width="4"><rect x="0" y="0" width="171.85416412353516" height="54" rx="27" ry="27"/><text xml:space="preserve" x="27" y="37.83984375" stroke="none" font-family="sans-serif" font-size="40" font-weight="normal" fill="#000000">Author</text></g></g></g></g><g transform="translate(-39.597979746446654 39.59797974644666)"><g transform="translate(0 0)"><g transform="translate(-149.66666412353516 0)" fill="white"><rect x="0" y="0" width="149.66666412353516" height="38.4" rx="0" ry="0" stroke="none"/><g font-family="sans-serif" font-size="16" font-weight="normal" fill="#000000" text-anchor="end"><text xml:space="preserve" x="73.5" y="13.919000244140625" stroke="none">Name:</text><text xml:space="preserve" x="77.9375" y="13.919000244140625" stroke="none" text-anchor="start">Frederich</text><text xml:space="preserve" x="73.5" y="33.11900024414062" stroke="none" text-anchor="end">Surname:</text><text xml:space="preserve" x="77.9375" y="33.11900024414062" stroke="none" text-anchor="start">Gauss</text></g></g></g></g></g></g><g class="node"><g fill="#ffffff" stroke="#000000" stroke-width="4"><circle cx="-186.5230156854787" cy="341.6458879032351" r="52"/></g><g transform="translate(-186.5230156854787 341.6458879032351)"><g transform="scale(0.49961576953703324) translate(0 -27)"><g transform="translate(0 0)"><g transform="translate(-85.92708206176758 0)"><g fill="#ffffff" stroke="#000000" stroke-width="4"><rect x="0" y="0" width="171.85416412353516" height="54" rx="27" ry="27"/><text xml:space="preserve" x="27" y="37.83984375" stroke="none" font-family="sans-serif" font-size="40" font-weight="normal" fill="#000000">Author</text></g></g></g></g><g transform="translate(-39.597979746446654 39.59797974644666)"><g transform="translate(0 0)"><g transform="translate(-117.79166793823242 0)" fill="white"><rect x="0" y="0" width="117.79166793823242" height="38.4" rx="0" ry="0" stroke="none"/><g font-family="sans-serif" font-size="16" font-weight="normal" fill="#000000" text-anchor="end"><text xml:space="preserve" x="73.5" y="13.919000244140625" stroke="none">Name:</text><text xml:space="preserve" x="77.9375" y="13.919000244140625" stroke="none" text-anchor="start">Karl</text><text xml:space="preserve" x="73.5" y="33.11900024414062" stroke="none" text-anchor="end">Surname:</text><text xml:space="preserve" x="77.9375" y="33.11900024414062" stroke="none" text-anchor="start">Marx</text></g></g></g></g></g></g><g class="node"><g fill="#ffffff" stroke="#000000" stroke-width="4"><circle cx="-288.3828245427427" cy="-753.3815332880392" r="52"/></g><g transform="translate(-288.3828245427427 -753.3815332880392)"><g transform="scale(0.2422827673137486) translate(0 -27)"><g transform="translate(0 0)"><g transform="translate(-183.7604217529297 0)"><g fill="#ffffff" stroke="#000000" stroke-width="4"><rect x="0" y="0" width="367.5208435058594" height="54" rx="27" ry="27"/><text xml:space="preserve" x="27" y="37.83984375" stroke="none" font-family="sans-serif" font-size="40" font-weight="normal" fill="#000000">Conference Chair</text></g></g></g></g><g transform="translate(-39.597979746446654 -77.99797974644666)"><g transform="translate(0 0)"><g transform="translate(-126.66666793823242 0)" fill="white"><rect x="0" y="0" width="126.66666793823242" height="38.4" rx="0" ry="0" stroke="none"/><g font-family="sans-serif" font-size="16" font-weight="normal" fill="#000000" text-anchor="end"><text xml:space="preserve" x="73.5" y="13.919000244140625" stroke="none">Name:</text><text xml:space="preserve" x="77.9375" y="13.919000244140625" stroke="none" text-anchor="start">Jeff</text><text xml:space="preserve" x="73.5" y="33.11900024414062" stroke="none" text-anchor="end">Surname:</text><text xml:space="preserve" x="77.9375" y="33.11900024414062" stroke="none" text-anchor="start">Bezos</text></g></g></g></g></g></g><g class="node"><g fill="#ffffff" stroke="#000000" stroke-width="4"><circle cx="-412.7755234811307" cy="-388.15953944689807" r="52"/></g><g transform="translate(-412.7755234811307 -388.15953944689807)"><g transform="scale(0.46656298502353954) translate(0 -27)"><g transform="translate(0 0)"><g transform="translate(-92.59375 0)"><g fill="#ffffff" stroke="#000000" stroke-width="4"><rect x="0" y="0" width="185.1875" height="54" rx="27" ry="27"/><text xml:space="preserve" x="27" y="37.83984375" stroke="none" font-family="sans-serif" font-size="40" font-weight="normal" fill="#000000">Review</text></g></g></g></g><g transform="translate(39.59797974644666 -58.79797974644666)"><g transform="translate(0 0)"><g transform="translate(0 0)" fill="white"><rect x="0" y="0" width="132.85416793823242" height="19.2" rx="0" ry="0" stroke="none"/><g font-family="sans-serif" font-size="16" font-weight="normal" fill="#000000" text-anchor="end"><text xml:space="preserve" x="42.52083206176758" y="13.919000244140625" stroke="none">Date:</text><text xml:space="preserve" x="46.95833206176758" y="13.919000244140625" stroke="none" text-anchor="start">2023-07-23</text></g></g></g></g></g></g><g class="node"><g fill="#ffffff" stroke="#000000" stroke-width="4"><circle cx="-657.8757362872634" cy="-753.3815332880392" r="52"/></g><g transform="translate(-657.8757362872634 -753.3815332880392)"><g transform="scale(0.2944824377112301) translate(0 -27)"><g transform="translate(0 0)"><g transform="translate(-150.40625 0)"><g fill="#ffffff" stroke="#000000" stroke-width="4"><rect x="0" y="0" width="300.8125" height="54" rx="27" ry="27"/><text xml:space="preserve" x="27" y="37.83984375" stroke="none" font-family="sans-serif" font-size="40" font-weight="normal" fill="#000000">Journal Editor</text></g></g></g></g><g transform="translate(-39.597979746446654 -77.99797974644666)"><g transform="translate(0 0)"><g transform="translate(-120.45833206176758 0)" fill="white"><rect x="0" y="0" width="120.45833206176758" height="38.4" rx="0" ry="0" stroke="none"/><g font-family="sans-serif" font-size="16" font-weight="normal" fill="#000000" text-anchor="end"><text xml:space="preserve" x="73.5" y="13.919000244140625" stroke="none">Name:</text><text xml:space="preserve" x="77.9375" y="13.919000244140625" stroke="none" text-anchor="start">Elon</text><text xml:space="preserve" x="73.5" y="33.11900024414062" stroke="none" text-anchor="end">Surname:</text><text xml:space="preserve" x="77.9375" y="33.11900024414062" stroke="none" text-anchor="start">Musk</text></g></g></g></g></g></g><g class="node"><g fill="#ffffff" stroke="#000000" stroke-width="4"><circle cx="-915.7585462851109" cy="-560.9950387455825" r="52"/></g><g transform="translate(-915.7585462851109 -560.9950387455825)"><g transform="scale(0.46139399044581264) translate(0 -27)"><g transform="translate(0 0)"><g transform="translate(-93.71875 0)"><g fill="#ffffff" stroke="#000000" stroke-width="4"><rect x="0" y="0" width="187.4375" height="54" rx="27" ry="27"/><text xml:space="preserve" x="27" y="37.83984375" stroke="none" font-family="sans-serif" font-size="40" font-weight="normal" fill="#000000">Volume</text></g></g></g></g><g transform="translate(3.429011037612589e-15 -94.4)"><g transform="translate(0 0)"><g transform="translate(-109.82291793823242 0)" fill="white"><rect x="0" y="0" width="219.64583587646484" height="38.4" rx="0" ry="0" stroke="none"/><g font-family="sans-serif" font-size="16" font-weight="normal" fill="#000000" text-anchor="end"><text xml:space="preserve" x="129.3125" y="13.919000244140625" stroke="none">Publication_Date:</text><text xml:space="preserve" x="133.75" y="13.919000244140625" stroke="none" text-anchor="start">2023-08-04</text><text xml:space="preserve" x="129.3125" y="33.11900024414062" stroke="none" text-anchor="end">Is_relevant:</text><text xml:space="preserve" x="133.75" y="33.11900024414062" stroke="none" text-anchor="start">Yes</text></g></g></g></g></g></g><g class="node"><g fill="#ffffff" stroke="#000000" stroke-width="4"><circle cx="-7.265617589697318" cy="-1112.1300704962382" r="52"/></g><g transform="translate(-7.265617589697318 -1112.1300704962382)"><g transform="scale(0.3379087891833269) translate(0 -27)"><g transform="translate(0 0)"><g transform="translate(-130.40625 0)"><g fill="#ffffff" stroke="#000000" stroke-width="4"><rect x="0" y="0" width="260.8125" height="54" rx="27" ry="27"/><text xml:space="preserve" x="27" y="37.83984375" stroke="none" font-family="sans-serif" font-size="40" font-weight="normal" fill="#000000">Conference</text></g></g></g></g><g transform="translate(3.429011037612589e-15 -113.6)"><g transform="translate(0 0)"><g transform="translate(-118.56250381469727 0)" fill="white"><rect x="0" y="0" width="237.12500762939453" height="57.599999999999994" rx="0" ry="0" stroke="none"/><g font-family="sans-serif" font-size="16" font-weight="normal" fill="#000000" text-anchor="end"><text xml:space="preserve" x="86.83333587646484" y="13.919000244140625" stroke="none">Name:</text><text xml:space="preserve" x="91.27083587646484" y="13.919000244140625" stroke="none" text-anchor="start">Big Data &amp; AI World</text><text xml:space="preserve" x="86.83333587646484" y="33.11900024414062" stroke="none" text-anchor="end">Organizer:</text><text xml:space="preserve" x="91.27083587646484" y="33.11900024414062" stroke="none" text-anchor="start">Tech Show London</text><text xml:space="preserve" x="86.83333587646484" y="52.319000244140625" stroke="none" text-anchor="end">Is_relevant:</text><text xml:space="preserve" x="91.27083587646484" y="52.319000244140625" stroke="none" text-anchor="start">No</text></g></g></g></g></g></g><g class="node"><g fill="#ffffff" stroke="#000000" stroke-width="4"><circle cx="-7.265617589697318" cy="-753.3815332880392" r="52"/></g><g transform="translate(-7.265617589697318 -753.3815332880392)"><g transform="scale(0.4880257470087477) translate(0 -27)"><g transform="translate(0 0)"><g transform="translate(-88.16666793823242 0)"><g fill="#ffffff" stroke="#000000" stroke-width="4"><rect x="0" y="0" width="176.33333587646484" height="54" rx="27" ry="27"/><text xml:space="preserve" x="27" y="37.83984375" stroke="none" font-family="sans-serif" font-size="40" font-weight="normal" fill="#000000">Edition</text></g></g></g></g><g transform="translate(56 -19.2)"><g transform="translate(0 0)"><g transform="translate(0 0)" fill="white"><rect x="0" y="0" width="170.95833587646484" height="38.4" rx="0" ry="0" stroke="none"/><g font-family="sans-serif" font-size="16" font-weight="normal" fill="#000000" text-anchor="end"><text xml:space="preserve" x="80.625" y="13.919000244140625" stroke="none">Start Date:</text><text xml:space="preserve" x="85.0625" y="13.919000244140625" stroke="none" text-anchor="start">2024-03-06</text><text xml:space="preserve" x="80.625" y="33.11900024414062" stroke="none" text-anchor="end">End Date:</text><text xml:space="preserve" x="85.0625" y="33.11900024414062" stroke="none" text-anchor="start">2024-03-07</text></g></g></g></g></g></g><g class="node"><g fill="#ffffff" stroke="#000000" stroke-width="4"><circle cx="445.9119364157869" cy="64.67329311043284" r="52"/></g><g transform="translate(445.9119364157869 64.67329311043284)"><g transform="scale(0.5307304731141692) translate(0 -27)"><g transform="translate(0 0)"><g transform="translate(-80.375 0)"><g fill="#ffffff" stroke="#000000" stroke-width="4"><rect x="0" y="0" width="160.75" height="54" rx="27" ry="27"/><text xml:space="preserve" x="27" y="37.83984375" stroke="none" font-family="sans-serif" font-size="40" font-weight="normal" fill="#000000">Paper</text></g></g></g></g><g transform="translate(56 -19.2)"><g transform="translate(0 0)"><g transform="translate(0 0)" fill="white"><rect x="0" y="0" width="374.7291679382324" height="38.4" rx="0" ry="0" stroke="none"/><g font-family="sans-serif" font-size="16" font-weight="normal" fill="#000000" text-anchor="end"><text xml:space="preserve" x="67.35416793823242" y="13.919000244140625" stroke="none">Title:</text><text xml:space="preserve" x="71.79166793823242" y="13.919000244140625" stroke="none" text-anchor="start">Quantum mechanics</text><text xml:space="preserve" x="67.35416793823242" y="33.11900024414062" stroke="none" text-anchor="end">Abstract:</text><text xml:space="preserve" x="71.79166793823242" y="33.11900024414062" stroke="none" text-anchor="start">Recent discoveries in quantum mechanics</text></g></g></g></g></g></g><g class="node"><g fill="#ffffff" stroke="#000000" stroke-width="4"><circle cx="899.0732376614795" cy="849.5716908919978" r="52"/></g><g transform="translate(899.0732376614795 849.5716908919978)"><g transform="scale(0.46656298502353954) translate(0 -27)"><g transform="translate(0 0)"><g transform="translate(-92.59375 0)"><g fill="#ffffff" stroke="#000000" stroke-width="4"><rect x="0" y="0" width="185.1875" height="54" rx="27" ry="27"/><text xml:space="preserve" x="27" y="37.83984375" stroke="none" font-family="sans-serif" font-size="40" font-weight="normal" fill="#000000">Review</text></g></g></g></g><g transform="translate(3.429011037612589e-15 56)"><g transform="translate(0 0)"><g transform="translate(-66.42708396911621 0)" fill="white"><rect x="0" y="0" width="132.85416793823242" height="19.2" rx="0" ry="0" stroke="none"/><g font-family="sans-serif" font-size="16" font-weight="normal" fill="#000000" text-anchor="end"><text xml:space="preserve" x="42.52083206176758" y="13.919000244140625" stroke="none">Date:</text><text xml:space="preserve" x="46.95833206176758" y="13.919000244140625" stroke="none" text-anchor="start">2023-07-25</text></g></g></g></g></g></g><g class="node"><g fill="#ffffff" stroke="#000000" stroke-width="4"><circle cx="899.0732376614795" cy="528.3254184406501" r="52"/></g><g transform="translate(899.0732376614795 528.3254184406501)"><g transform="scale(0.2422827673137486) translate(0 -27)"><g transform="translate(0 0)"><g transform="translate(-183.7604217529297 0)"><g fill="#ffffff" stroke="#000000" stroke-width="4"><rect x="0" y="0" width="367.5208435058594" height="54" rx="27" ry="27"/><text xml:space="preserve" x="27" y="37.83984375" stroke="none" font-family="sans-serif" font-size="40" font-weight="normal" fill="#000000">Conference Chair</text></g></g></g></g><g transform="translate(3.429011037612589e-15 -94.4)"><g transform="translate(0 0)"><g transform="translate(-62.89583396911621 0)" fill="white"><rect x="0" y="0" width="125.79166793823242" height="38.4" rx="0" ry="0" stroke="none"/><g font-family="sans-serif" font-size="16" font-weight="normal" fill="#000000" text-anchor="end"><text xml:space="preserve" x="73.5" y="13.919000244140625" stroke="none">Name:</text><text xml:space="preserve" x="77.9375" y="13.919000244140625" stroke="none" text-anchor="start">Oliver</text><text xml:space="preserve" x="73.5" y="33.11900024414062" stroke="none" text-anchor="end">Surname:</text><text xml:space="preserve" x="77.9375" y="33.11900024414062" stroke="none" text-anchor="start">Sykes</text></g></g></g></g></g></g><g class="node"><g fill="#ffffff" stroke="#000000" stroke-width="4"><circle cx="1167.5470657459825" cy="528.3254184406501" r="52"/></g><g transform="translate(1167.5470657459825 528.3254184406501)"><g transform="scale(0.37575039260368226) translate(0 -27)"><g transform="translate(0 0)"><g transform="translate(-116.67708587646484 0)"><g fill="#ffffff" stroke="#000000" stroke-width="4"><rect x="0" y="0" width="233.3541717529297" height="54" rx="27" ry="27"/><text xml:space="preserve" x="27" y="37.83984375" stroke="none" font-family="sans-serif" font-size="40" font-weight="normal" fill="#000000">Workshop</text></g></g></g></g><g transform="translate(39.59797974644666 -135.59797974644664)"><g transform="translate(0 0)"><g transform="translate(0 0)" fill="white"><rect x="0" y="0" width="375.31249237060547" height="96" rx="0" ry="0" stroke="none"/><g font-family="sans-serif" font-size="16" font-weight="normal" fill="#000000" text-anchor="end"><text xml:space="preserve" x="86.83333587646484" y="13.919000244140625" stroke="none">Name:</text><text xml:space="preserve" x="91.27083587646484" y="13.919000244140625" stroke="none" text-anchor="start">Industrial Data Science Workshop 2024</text><text xml:space="preserve" x="86.83333587646484" y="33.11900024414062" stroke="none" text-anchor="end">Organizer:</text><text xml:space="preserve" x="91.27083587646484" y="33.11900024414062" stroke="none" text-anchor="start">Dr. Francisco Navarro</text><text xml:space="preserve" x="86.83333587646484" y="52.319000244140625" stroke="none" text-anchor="end">Start Date:</text><text xml:space="preserve" x="91.27083587646484" y="52.319000244140625" stroke="none" text-anchor="start">2024-06-18</text><text xml:space="preserve" x="86.83333587646484" y="71.51900024414063" stroke="none" text-anchor="end">End Date:</text><text xml:space="preserve" x="91.27083587646484" y="71.51900024414063" stroke="none" text-anchor="start">2024-06-20</text><text xml:space="preserve" x="86.83333587646484" y="90.71900024414062" stroke="none" text-anchor="end">Is_relevant:</text><text xml:space="preserve" x="91.27083587646484" y="90.71900024414062" stroke="none" text-anchor="start">Yes</text></g></g></g></g></g></g><g class="node"><g fill="#ffffff" stroke="#000000" stroke-width="4"><circle cx="-1171.2495679995861" cy="-413.4872285831976" r="52"/></g><g transform="translate(-1171.2495679995861 -413.4872285831976)"><g transform="scale(0.46651462715933323) translate(0 -27)"><g transform="translate(0 0)"><g transform="translate(-92.60416412353516 0)"><g fill="#ffffff" stroke="#000000" stroke-width="4"><rect x="0" y="0" width="185.2083282470703" height="54" rx="27" ry="27"/><text xml:space="preserve" x="27" y="37.83984375" stroke="none" font-family="sans-serif" font-size="40" font-weight="normal" fill="#000000">Journal</text></g></g></g></g><g transform="translate(-39.597979746446654 39.59797974644666)"><g transform="translate(0 0)"><g transform="translate(-232.91666793823242 0)" fill="white"><rect x="0" y="0" width="232.91666793823242" height="38.4" rx="0" ry="0" stroke="none"/><g font-family="sans-serif" font-size="16" font-weight="normal" fill="#000000" text-anchor="end"><text xml:space="preserve" x="55.79166793823242" y="13.919000244140625" stroke="none">Name:</text><text xml:space="preserve" x="60.22916793823242" y="13.919000244140625" stroke="none" text-anchor="start">Nature</text><text xml:space="preserve" x="55.79166793823242" y="33.11900024414062" stroke="none" text-anchor="end">Owner:</text><text xml:space="preserve" x="60.22916793823242" y="33.11900024414062" stroke="none" text-anchor="start">Springer Nature Limited</text></g></g></g></g></g></g></g></svg>